<svg width="64" height="64" viewBox="0 0 64 64" fill="none" xmlns="http://www.w3.org/2000/svg">
<path d="M37.2062 27.5884L31.62 33.1746L26.0074 27.5884L22.2921 31.3038L27.9046 36.89L22.3184 42.4762L26.0338 46.1916L31.62 40.6053L37.2062 46.1916L40.9215 42.4762L35.3353 36.89L40.9215 31.3038L37.2062 27.5884ZM40.8425 10.54L38.2075 7.905H25.0325L22.3975 10.54H13.175V15.81H50.065V10.54H40.8425ZM15.81 50.065C15.81 52.9635 18.1815 55.335 21.08 55.335H42.16C45.0585 55.335 47.43 52.9635 47.43 50.065V18.445H15.81V50.065ZM21.08 23.715H42.16V50.065H21.08V23.715Z" fill="#EF4444"/>
</svg>
