<svg width="64" height="64" viewBox="0 0 64 64" fill="none" xmlns="http://www.w3.org/2000/svg">
<path d="M48.2205 15.0458C47.1928 14.0182 45.5328 14.0182 44.5051 15.0458L31.62 27.9046L18.7349 15.0195C17.7072 13.9918 16.0471 13.9918 15.0195 15.0195C13.9918 16.0471 13.9918 17.7072 15.0195 18.7348L27.9047 31.62L15.0195 44.5051C13.9918 45.5328 13.9918 47.1928 15.0195 48.2205C16.0471 49.2481 17.7072 49.2481 18.7349 48.2205L31.62 35.3353L44.5051 48.2205C45.5328 49.2481 47.1928 49.2481 48.2205 48.2205C49.2481 47.1928 49.2481 45.5328 48.2205 44.5051L35.3353 31.62L48.2205 18.7348C49.2218 17.7335 49.2218 16.0471 48.2205 15.0458Z" fill="#EF4444"/>
</svg>
