<svg width="64" height="64" viewBox="0 0 64 64" fill="none" xmlns="http://www.w3.org/2000/svg">
<path d="M40.8425 36.89H38.7608L38.0231 36.1785C41.1851 32.4895 42.8187 27.4567 41.9228 22.1077C40.6844 14.7824 34.5712 8.93265 27.1932 8.03675C16.0471 6.66655 6.66655 16.0471 8.03675 27.1932C8.93265 34.5712 14.7824 40.6844 22.1077 41.9228C27.4567 42.8187 32.4895 41.1851 36.1785 38.0231L36.89 38.7608V40.8425L48.0887 52.0412C49.1691 53.1216 50.9345 53.1216 52.0149 52.0412C53.0952 50.9609 53.0952 49.1954 52.0149 48.1151L40.8425 36.89ZM25.0325 36.89C18.4713 36.89 13.175 31.5936 13.175 25.0325C13.175 18.4713 18.4713 13.175 25.0325 13.175C31.5936 13.175 36.89 18.4713 36.89 25.0325C36.89 31.5936 31.5936 36.89 25.0325 36.89Z" fill="#BDBDBD"/>
</svg>
